<?xml version="1.0" encoding="UTF-8"?>
<svg width="25px" height="34px" viewBox="0 0 25 34" version="1.1" xmlns="http://www.w3.org/2000/svg" xmlns:xlink="http://www.w3.org/1999/xlink">
    <!-- Generator: Sketch 41.1 (35376) - http://www.bohemiancoding.com/sketch -->
    <title>Map</title>
    <desc>Created with Sketch.</desc>
    <defs></defs>
    <g id="Page-1" stroke="none" stroke-width="1" fill="none" fill-rule="evenodd">
        <g id="iPhone-7" transform="translate(-47.000000, -217.000000)" fill="#3C3C3C">
            <path d="M59.4628418,217.376858 C55.049082,217.376858 51.4583798,220.96756 51.4583798,225.38132 C51.4583798,229.451762 58.292698,243.695107 59.4628418,246.104359 C60.6329856,243.695107 67.4673038,229.451762 67.4673038,225.38132 C67.4673038,220.96756 63.8766016,217.376858 59.4628418,217.376858 L59.4628418,217.376858 Z M59.4628418,246.960204 L59.2940095,246.617263 C58.9586059,245.936658 51.0815219,229.897962 51.0815219,225.38132 C51.0815219,220.759911 54.8410564,217 59.4628418,217 C64.0846272,217 67.8441617,220.759911 67.8441617,225.38132 C67.8441617,229.897962 59.9670777,245.936658 59.6316742,246.617263 L59.4628418,246.960204 Z M59.5,250.351925 C52.4904429,250.351925 47,248.672269 47,246.527948 C46.9996231,244.872411 50.2590672,243.455802 55.304064,242.91878 L55.344011,243.293753 C50.6525069,243.79309 47.3764811,245.122645 47.3768579,246.527948 C47.3768579,248.192906 52.2485001,249.975067 59.5,249.975067 C66.7514999,249.975067 71.6231421,248.192906 71.6231421,246.527948 C71.6231421,245.065362 68.1748922,243.717718 63.2372999,243.251545 L63.2727245,242.876195 C68.5743616,243.377039 72,244.810606 72,246.527948 C72,248.672269 66.5095571,250.351925 59.5,250.351925 M59.5717914,220.328409 C56.73782,220.328409 54.4322033,222.634026 54.4322033,225.468374 C54.4322033,228.301969 56.73782,230.607209 59.5717914,230.607209 C62.4057629,230.607209 64.7113796,228.301969 64.7113796,225.468374 C64.7113796,222.634026 62.4057629,220.328409 59.5717914,220.328409 M59.5717914,230.984066 C56.5301712,230.984066 54.0553454,228.509617 54.0553454,225.468374 C54.0553454,222.426 56.5301712,219.951551 59.5717914,219.951551 C62.6134116,219.951551 65.0882375,222.426 65.0882375,225.468374 C65.0882375,228.509617 62.6134116,230.984066 59.5717914,230.984066" id="Map"></path>
        </g>
    </g>
</svg>