<?xml version="1.0" encoding="UTF-8"?>
<svg width="100px" height="100px" viewBox="0 0 100 100" version="1.1" xmlns="http://www.w3.org/2000/svg" xmlns:xlink="http://www.w3.org/1999/xlink">
    <!-- Generator: Sketch 41.1 (35376) - http://www.bohemiancoding.com/sketch -->
    <title>quantoLogo</title>
    <desc>Created with Sketch.</desc>
    <defs></defs>
    <g id="Page-1" stroke="none" stroke-width="1" fill="none" fill-rule="evenodd">
        <g id="quantoLogo">
            <circle id="Oval" stroke="#DF0000" cx="50" cy="50" r="41"></circle>
            <path d="M49.36,70.84 C55.12,70.84 56.86,72.22 59.5,75.16 C59.98,75.64 60.46,75.82 61,75.82 C62.14,75.82 63.04,74.92 63.04,73.84 C63.04,73.36 62.86,72.88 62.44,72.34 C61.3,70.9 59.68,69.88 58.12,69.22 C64.42,66.4 68.08,59.98 68.08,49.84 C68.08,35.62 61,28.78 49.36,28.78 C37.72,28.78 30.64,35.62 30.64,49.84 C30.64,63.94 37.72,70.84 49.36,70.84 Z M49.36,32.5 C58.54,32.5 63.88,38.08 63.88,49.84 C63.88,61.54 58.54,67.12 49.36,67.12 C40.18,67.12 34.84,61.54 34.84,49.84 C34.84,38.08 40.18,32.5 49.36,32.5 Z" id="Q" fill="#DF0000"></path>
        </g>
    </g>
</svg>