<?xml version="1.0" encoding="UTF-8"?>
<svg width="25px" height="21px" viewBox="0 0 25 21" version="1.1" xmlns="http://www.w3.org/2000/svg" xmlns:xlink="http://www.w3.org/1999/xlink">
    <!-- Generator: Sketch 41.1 (35376) - http://www.bohemiancoding.com/sketch -->
    <title>Shopping cart 3</title>
    <desc>Created with Sketch.</desc>
    <defs></defs>
    <g id="Page-1" stroke="none" stroke-width="1" fill="none" fill-rule="evenodd">
        <g id="iPhone-7" transform="translate(-47.000000, -392.000000)" fill="#9B9B9B">
            <path d="M68.8034483,408.292241 L68.8034483,408.292241 L53.9913793,408.292241 C53.362069,408.292241 52.85,407.781897 52.85,407.147414 C52.85,406.842241 52.9681034,406.557759 53.1836207,406.340517 C53.3991379,406.125 53.687069,406.003448 53.9922414,406.003448 L53.9922414,406.003448 L53.9939655,406.003448 L68.6577586,406.003448 C68.8818966,406.003448 69.075,405.851724 69.1293103,405.636207 L71.5741379,395.862069 C71.6094828,395.717241 71.5775862,395.565517 71.4844828,395.444828 C71.3939655,395.328448 71.2517241,395.259483 71.1025862,395.259483 L51.9284483,395.259483 L51.2077586,392.367241 C51.1543103,392.151724 50.9603448,392 50.7344828,392 L47.4844828,392 C47.2155172,392 47,392.22069 47,392.484483 C47,392.753448 47.2155172,392.968966 47.4844828,392.968966 L50.3568966,392.968966 L51.0810345,395.861207 L53.4008621,405.15 C53.0655172,405.247414 52.7491379,405.399138 52.4965517,405.653448 C52.0991379,406.050862 51.8784483,406.584483 51.8784483,407.144828 C51.8784483,407.816379 52.2103448,408.388793 52.6982759,408.776724 C52.6344828,408.825862 52.5551724,408.850862 52.4948276,408.912931 C52.0991379,409.310345 51.8784483,409.840517 51.8784483,410.40431 C51.8784483,411.572414 52.8267241,412.518966 53.9896552,412.518966 L53.9965517,412.518966 C54.5603448,412.518966 55.0913793,412.3 55.4913793,411.897414 C55.8887931,411.5 56.1094828,410.969828 56.1077586,410.40431 C56.1077586,409.973276 55.9456897,409.597414 55.7224138,409.261207 L67.0741379,409.261207 C66.8465517,409.606034 66.6905172,409.985345 66.6905172,410.40431 C66.6905172,411.572414 67.637069,412.518966 68.8017241,412.518966 L68.8103448,412.518966 C69.3724138,412.518966 69.9051724,412.3 70.3017241,411.897414 C70.6991379,411.5 70.9198276,410.969828 70.9198276,410.40431 C70.9198276,409.243966 69.9715517,408.297414 68.8034483,408.292241 L68.8034483,408.292241 Z M70.4801724,396.230172 L68.2775862,405.034483 L54.3732759,405.034483 L52.1715517,396.230172 L70.4801724,396.230172 L70.4801724,396.230172 Z M55.1362069,410.412069 C55.137931,410.715517 55.0181034,410.998276 54.8025862,411.215517 C54.587069,411.431034 54.3008621,411.552586 53.9956897,411.552586 L53.987069,411.552586 C53.3603448,411.552586 52.8491379,411.040517 52.8491379,410.407759 C52.8491379,410.101724 52.9672414,409.816379 53.1827586,409.600862 C53.3982759,409.385345 53.6844828,409.263793 53.9956897,409.263793 C54.6267241,409.263793 55.1362069,409.77931 55.1362069,410.412069 L55.1362069,410.412069 Z M69.6146552,411.215517 C69.3991379,411.431034 69.1112069,411.552586 68.8094828,411.552586 L68.7991379,411.552586 C68.1706897,411.552586 67.6594828,411.040517 67.6594828,410.407759 C67.6594828,410.101724 67.7775862,409.816379 67.9931034,409.600862 C68.2086207,409.385345 68.4982759,409.263793 68.8094828,409.263793 C69.437931,409.263793 69.9474138,409.77931 69.9474138,410.412069 C69.9482759,410.715517 69.8318966,410.998276 69.6146552,411.215517 L69.6146552,411.215517 Z" id="Shopping-cart-3"></path>
        </g>
    </g>
</svg>