<?xml version="1.0" encoding="UTF-8"?>
<svg width="17px" height="30px" viewBox="0 0 17 30" version="1.1" xmlns="http://www.w3.org/2000/svg" xmlns:xlink="http://www.w3.org/1999/xlink">
    <!-- Generator: Sketch 41.1 (35376) - http://www.bohemiancoding.com/sketch -->
    <title>Group 4</title>
    <desc>Created with Sketch.</desc>
    <defs></defs>
    <g id="Page-1" stroke="none" stroke-width="1" fill="none" fill-rule="evenodd">
        <g id="iPhone-7" transform="translate(-51.000000, -217.000000)">
            <g id="Group-4" transform="translate(47.000000, 217.000000)">
                <path d="M12.4628418,0.376857909 C8.04908197,0.376857909 4.45837981,3.96756007 4.45837981,8.38131991 C4.45837981,12.4517622 11.292698,26.6951069 12.4628418,29.1043595 C13.6329856,26.6951069 20.4673038,12.4517622 20.4673038,8.38131991 C20.4673038,3.96756007 16.8766016,0.376857909 12.4628418,0.376857909 L12.4628418,0.376857909 Z M12.4628418,29.9602038 L12.2940095,29.6172631 C11.9586059,28.9366577 4.0815219,12.897962 4.0815219,8.38131991 C4.0815219,3.75991136 7.84105641,0 12.4628418,0 C17.0846272,0 20.8441617,3.75991136 20.8441617,8.38131991 C20.8441617,12.897962 12.9670777,28.9366577 12.6316742,29.6172631 L12.4628418,29.9602038 Z M12.5717914,3.32840906 C9.73781995,3.32840906 7.43220326,5.63402575 7.43220326,8.46837408 C7.43220326,11.3019687 9.73781995,13.6072085 12.5717914,13.6072085 C15.4057629,13.6072085 17.7113796,11.3019687 17.7113796,8.46837408 C17.7113796,5.63402575 15.4057629,3.32840906 12.5717914,3.32840906 M12.5717914,13.9840664 C9.53017124,13.9840664 7.05534535,11.5096174 7.05534535,8.46837408 C7.05534535,5.42600018 9.53017124,2.95155115 12.5717914,2.95155115 C15.6134116,2.95155115 18.0882375,5.42600018 18.0882375,8.46837408 C18.0882375,11.5096174 15.6134116,13.9840664 12.5717914,13.9840664" id="Map" fill="#3C3C3C"></path>
                <path d="M12.5,33.351925 C5.49044288,33.351925 0,31.6722693 0,29.5279478 C-0.000376857909,27.872411 3.2590672,26.4558021 8.30406404,25.9187796 L8.34401097,26.2937532 C3.65250686,26.7930899 0.376481052,28.1226446 0.376857909,29.5279478 C0.376857909,31.192906 5.24850011,32.9750671 12.5,32.9750671 C19.7514999,32.9750671 24.6231421,31.192906 24.6231421,29.5279478 C24.6231421,28.0653622 21.1748922,26.7177184 16.2372999,26.2515451 L16.2727245,25.8761946 C21.5743616,26.3770388 25,27.8106063 25,29.5279478 C25,31.6722693 19.5095571,33.351925 12.5,33.351925" id="Fill-5" stroke="#979797" opacity="0"></path>
            </g>
        </g>
    </g>
</svg>